<svg width="250" height="250" viewBox="0 0 250 250" fill="none" xmlns="http://www.w3.org/2000/svg">
<path d="M150 62.619C149.342 60.6698 148.465 59.8538 143.75 60.119H70C66 60.119 65 62.619 65 63.869C65.8333 84.7023 67.5 126.869 67.5 128.869C67.5 130.869 70 131.369 71.25 131.369H125H160H181.25C184.06 131.273 184.84 130.699 185 128.869V106.369C185 101.369 181.667 100.119 180 100.119H160C154 100.119 151.667 92.619 151.25 88.869L150 62.619Z" fill="#7631DE"/>
<path d="M146.25 187.791L135 130.119H128.75L141.25 189.045C142.574 190.196 145.23 191.173 146.25 187.791Z" fill="#A97B49"/>
<path d="M101.25 187.619L112.5 130.119H118.75L106.25 188.869C104.926 190.016 102.269 190.99 101.25 187.619Z" fill="#A97B49"/>
<path d="M63.75 187.619L75 130.119H81.25L68.75 188.869C67.4257 190.016 64.7693 190.99 63.75 187.619Z" fill="#A97B49"/>
<path d="M175 113.869C182 113.869 185 130.07 185 130.07L185 106.024C184.864 101.47 183.754 100.176 180 100.07H159.741C153.837 98.1229 152.454 95.2097 151.25 88.8204L150 62.5704C149.395 60.1664 147.77 59.8154 143.75 60.0704L138.75 60.1189C143.698 60.8782 143.266 66.3714 143.75 70.1189C145.417 83.8689 144.934 106.621 145 107.619C145.178 110.298 148.75 113.82 151.814 113.869C154.878 113.918 175 113.869 175 113.869Z" fill="#8738FF"/>
<path d="M80 93.869C79.1665 85.119 77.8737 67.0837 77.5 65.119C77.158 63.282 75.9948 61.8727 74.4868 61.0195C71.4103 59.2782 66.8988 59.8507 65 63.8205L67.5 128.82C68.2728 130.62 71.25 131.32 71.25 131.32L113.75 131.369V105.119C113.75 102.119 110.417 100.536 108.75 100.119H87.5C81.5 100.119 80 95.9525 80 93.869Z" fill="#8738FF"/>
<path d="M113.75 113.82H151.25H175C180.998 115.763 183.116 119.08 185 128.82C184.836 130.661 184.271 131.286 182.5 131.32H113.75V113.82Z" fill="#944FFE"/>
<path d="M183.75 188.869L172.5 131.369H166.25L178.75 190.119C180.074 191.266 182.73 192.24 183.75 188.869Z" fill="#A97B49"/>
<line x1="41" y1="195.5" x2="213.026" y2="195.5" stroke="#8738FF" stroke-opacity="0.56" stroke-width="3"/>
</svg>
