<svg width="149" height="101" viewBox="0 0 149 101" fill="none" xmlns="http://www.w3.org/2000/svg">
<path d="M5.93359 88.5444C7.63023 88.4383 10.2503 86.1532 11.1898 84.8558C14.2751 80.5951 17.1801 76.632 20.0116 72.1918C24.507 65.1422 31.7752 60.1906 37.3785 54.0564C41.0425 50.0453 44.6391 45.8512 48.7515 42.2838C52.2618 39.2387 56.4446 37.1116 60.1553 34.3227C67.8386 28.548 76.5238 23.3949 83.5776 16.8943C84.9213 15.6559 88.0244 11.2356 89.9096 11.0848C91.3581 10.9689 93.9151 8.12229 94.7662 7.08885C98.6935 2.31994 84.0887 13.4087 79.3358 17.3553C75.2943 20.7112 71.1935 23.9209 67.0406 27.13C64.1168 29.3893 62.3898 32.4575 59.8787 35.0911C57.9703 37.0926 56.7852 39.0266 55.4217 41.4231C53.4782 44.839 50.4689 47.6137 48.1675 50.7982C44.7883 55.474 41.1737 61.4562 40.7904 67.3967C40.6664 69.3184 40.8749 70.1627 42.1736 71.6692C42.9662 72.5886 43.5568 73.1484 43.5568 74.3742C43.5568 74.8794 43.278 79.3614 43.6798 79.4459C44.9327 79.7097 49.079 77.2515 50.0733 76.8025C56.7522 73.7862 62.9635 69.6425 69.223 65.8598C74.0228 62.9592 79.7646 60.0078 83.5776 55.7777C86.651 52.3682 90.7054 50.6314 94.6125 48.2469C98.8044 45.6887 102.753 42.404 107.123 40.1629C107.475 39.9822 108.226 39.5572 108.291 39.9477C108.526 41.3569 105.794 41.342 104.602 42.1301C96.0926 47.7582 88.6644 55.3603 81.303 62.3556C77.5099 65.9601 74.3176 69.606 71.0673 73.6365C70.7935 73.9759 66.2449 76.9671 67.5939 77.7861C70.1913 79.3631 79.3759 75.6255 80.8727 75.1426C94.7611 70.6617 109.048 65.5281 122.031 58.79C133.315 52.9337 98.045 67.2296 86.0981 71.577C82.9575 72.7199 74.7865 75.9244 83.0243 74.4357C92.8874 72.6532 102.765 71.6023 112.594 69.4561C113.064 69.3535 143.512 61.3556 143.517 61.372C143.969 62.9105 136.987 68.2792 136.201 69.0565C132.192 73.0211 129.472 77.6002 126.057 82.0279C126.042 82.0478 121.558 86.6122 123.629 86.7923C126.857 87.073 130.617 83.8964 133.435 82.7042C136.453 81.4271 134.426 83.237 133.435 83.9337C128.781 87.205 124.709 91.1577 120.125 94.5075C115.683 97.7535 128.785 87.6544 133.557 84.9173C133.86 84.7437 134.705 84.2599 134.357 84.2411C132.907 84.1627 131.513 84.8362 130.115 85.2247C119.852 88.0755 109.894 90.7174 99.1925 91.1878C98.582 91.2147 87.0575 92.2361 86.9895 90.2657C86.913 88.0477 90.5142 86.0335 90.7703 83.6263C90.9916 81.546 60.4058 85.4007 60.2475 81.4439C60.1196 78.2463 70.0322 66.8263 64.9504 63.954C61.0071 61.7252 55.6595 62.6092 51.3028 61.9868" stroke="#8E1DFF" stroke-width="10" stroke-linecap="round"/>
</svg>
