<svg width="186" height="138" viewBox="0 0 186 138" fill="none" xmlns="http://www.w3.org/2000/svg">
<g clip-path="url(#clip0_122_98)">
<path d="M65.0642 84.9356C64.8204 84.9356 64.5881 84.842 64.4112 84.672C64.3984 84.6598 62.8765 83.188 56.7291 77.0407L56.6863 76.9978C56.623 76.9352 56.592 76.8992 56.561 76.8629C55.5572 75.7776 55 74.3662 55 72.8975C55 69.6812 57.6168 67.0644 60.8331 67.0644C62.4117 67.0644 63.911 67.6998 64.9997 68.8189C66.0887 67.6998 67.5884 67.0644 69.1669 67.0644C72.3832 67.0644 75.0001 69.6812 75.0001 72.8975C75.0001 74.5092 74.3543 76.0086 73.1811 77.1223C73.1639 77.1424 73.1482 77.1583 73.1367 77.1696C66.9398 83.3664 65.7644 84.6232 65.7531 84.6351C65.5806 84.8195 65.3387 84.9287 65.0883 84.935L65.0642 84.9356Z" fill="#CBCBCB"/>
</g>
<g clip-path="url(#clip1_122_98)">
<path d="M125.064 71.9356C124.82 71.9356 124.588 71.842 124.411 71.672C124.398 71.6598 122.876 70.188 116.729 64.0407L116.686 63.9978C116.623 63.9352 116.592 63.8992 116.561 63.8629C115.557 62.7776 115 61.3662 115 59.8975C115 56.6812 117.617 54.0644 120.833 54.0644C122.412 54.0644 123.911 54.6998 125 55.8189C126.089 54.6998 127.588 54.0644 129.167 54.0644C132.383 54.0644 135 56.6812 135 59.8975C135 61.5092 134.354 63.0086 133.181 64.1223C133.164 64.1424 133.148 64.1583 133.137 64.1696C126.94 70.3664 125.764 71.6232 125.753 71.6351C125.581 71.8195 125.339 71.9287 125.088 71.935L125.064 71.9356Z" fill="#CBCBCB"/>
</g>
<g clip-path="url(#clip2_122_98)">
<path d="M67.0642 18.9356C66.8204 18.9356 66.5881 18.842 66.4112 18.672C66.3984 18.6598 64.8765 17.188 58.7291 11.0407L58.6863 10.9978C58.623 10.9352 58.592 10.8992 58.561 10.8629C57.5572 9.7776 57 8.36623 57 6.89752C57 3.68123 59.6168 1.0644 62.8331 1.0644C64.4117 1.0644 65.911 1.69984 66.9997 2.81885C68.0887 1.69979 69.5884 1.0644 71.1669 1.0644C74.3832 1.0644 77.0001 3.68123 77.0001 6.89752C77.0001 8.50923 76.3543 10.0086 75.1811 11.1223C75.1639 11.1424 75.1482 11.1583 75.1367 11.1696C68.9398 17.3664 67.7644 18.6232 67.7531 18.6351C67.5806 18.8195 67.3387 18.9287 67.0883 18.935L67.0642 18.9356Z" fill="#CBCBCB"/>
</g>
<g clip-path="url(#clip3_122_98)">
<path d="M176.064 83.9356C175.82 83.9356 175.588 83.842 175.411 83.672C175.398 83.6598 173.876 82.188 167.729 76.0407L167.686 75.9978C167.623 75.9352 167.592 75.8992 167.561 75.8629C166.557 74.7776 166 73.3662 166 71.8975C166 68.6812 168.617 66.0644 171.833 66.0644C173.412 66.0644 174.911 66.6998 176 67.8189C177.089 66.6998 178.588 66.0644 180.167 66.0644C183.383 66.0644 186 68.6812 186 71.8975C186 73.5092 185.354 75.0086 184.181 76.1223C184.164 76.1424 184.148 76.1583 184.137 76.1696C177.94 82.3664 176.764 83.6232 176.753 83.6351C176.581 83.8195 176.339 83.9287 176.088 83.935L176.064 83.9356Z" fill="#CBCBCB"/>
</g>
<g clip-path="url(#clip4_122_98)">
<path d="M33.0642 136.936C32.8204 136.936 32.5881 136.842 32.4112 136.672C32.3984 136.66 30.8765 135.188 24.7291 129.041L24.6863 128.998C24.623 128.935 24.592 128.899 24.561 128.863C23.5572 127.778 23 126.366 23 124.898C23 121.681 25.6168 119.064 28.8331 119.064C30.4117 119.064 31.911 119.7 32.9997 120.819C34.0887 119.7 35.5884 119.064 37.1669 119.064C40.3832 119.064 43.0001 121.681 43.0001 124.898C43.0001 126.509 42.3543 128.009 41.1811 129.122C41.1639 129.142 41.1482 129.158 41.1367 129.17C34.9398 135.366 33.7644 136.623 33.7531 136.635C33.5806 136.819 33.3387 136.929 33.0883 136.935L33.0642 136.936Z" fill="#CBCBCB"/>
</g>
<g clip-path="url(#clip5_122_98)">
<path d="M155.064 21.9356C154.82 21.9356 154.588 21.842 154.411 21.672C154.398 21.6598 152.876 20.188 146.729 14.0407L146.686 13.9978C146.623 13.9352 146.592 13.8992 146.561 13.8629C145.557 12.7776 145 11.3662 145 9.89752C145 6.68123 147.617 4.0644 150.833 4.0644C152.412 4.0644 153.911 4.69984 155 5.81885C156.089 4.69979 157.588 4.0644 159.167 4.0644C162.383 4.0644 165 6.68123 165 9.89752C165 11.5092 164.354 13.0086 163.181 14.1223C163.164 14.1424 163.148 14.1583 163.137 14.1696C156.94 20.3664 155.764 21.6232 155.753 21.6351C155.581 21.8195 155.339 21.9287 155.088 21.935L155.064 21.9356Z" fill="#CBCBCB"/>
</g>
<g clip-path="url(#clip6_122_98)">
<path d="M10.0642 71.9356C9.82035 71.9356 9.58806 71.842 9.41122 71.672C9.39837 71.6598 7.87647 70.188 1.72912 64.0407L1.68626 63.9978C1.62304 63.9352 1.59204 63.8992 1.56104 63.8629C0.557172 62.7776 0 61.3662 0 59.8975C0 56.6812 2.61683 54.0644 5.83312 54.0644C7.41168 54.0644 8.91102 54.6998 9.99971 55.8189C11.0887 54.6998 12.5884 54.0644 14.1669 54.0644C17.3832 54.0644 20.0001 56.6812 20.0001 59.8975C20.0001 61.5092 19.3543 63.0086 18.1811 64.1223C18.1639 64.1424 18.1482 64.1583 18.1367 64.1696C11.9398 70.3664 10.7644 71.6232 10.7531 71.6351C10.5806 71.8195 10.3387 71.9287 10.0883 71.935L10.0642 71.9356Z" fill="#CBCBCB"/>
</g>
<defs>
<clipPath id="clip0_122_98">
<rect width="20" height="20" fill="white" transform="translate(55 66)"/>
</clipPath>
<clipPath id="clip1_122_98">
<rect width="20" height="20" fill="white" transform="translate(115 53)"/>
</clipPath>
<clipPath id="clip2_122_98">
<rect width="20" height="20" fill="white" transform="translate(57)"/>
</clipPath>
<clipPath id="clip3_122_98">
<rect width="20" height="20" fill="white" transform="translate(166 65)"/>
</clipPath>
<clipPath id="clip4_122_98">
<rect width="20" height="20" fill="white" transform="translate(23 118)"/>
</clipPath>
<clipPath id="clip5_122_98">
<rect width="20" height="20" fill="white" transform="translate(145 3)"/>
</clipPath>
<clipPath id="clip6_122_98">
<rect width="20" height="20" fill="white" transform="translate(0 53)"/>
</clipPath>
</defs>
</svg>
