<svg width="20" height="20" viewBox="0 0 20 20" fill="none" xmlns="http://www.w3.org/2000/svg">
<path opacity="0.15" fill-rule="evenodd" clip-rule="evenodd" d="M6.66602 8.33333V16.6667H14.4663C15.2608 16.6667 15.9448 16.1059 16.1007 15.3268L17.1007 10.3268C17.3069 9.29558 16.5181 8.33333 15.4663 8.33333H11.666L13.6875 5.30115C14.3268 4.34216 13.8231 3.03928 12.7049 2.75974L12.6653 2.74983C12.0528 2.59672 11.4065 2.80277 10.9957 3.28208L6.66602 8.33333Z" fill="#D9D9D9"/>
<path d="M6.66634 8.33332V16.6667M6.66634 8.33332L3.33301 8.33331V16.6667H6.66634M6.66634 8.33332L10.996 3.28205C11.4068 2.80274 12.0532 2.59669 12.6657 2.7498L12.7053 2.75971C13.8234 3.03925 14.3271 4.34213 13.6878 5.30112L11.6663 8.33331H15.4667C16.5184 8.33331 17.3073 9.29549 17.101 10.3268L16.101 15.3268C15.9452 16.1059 15.2612 16.6667 14.4667 16.6667H6.66634" stroke="#D9D9D9" stroke-linecap="round" stroke-linejoin="round"/>
</svg>
