<svg width="146" height="118" viewBox="0 0 146 118" fill="none" xmlns="http://www.w3.org/2000/svg">
<path d="M19.5 86.7305C19.1 85.9305 19 83.3972 19 82.2305L70.5 60.7305L104 81.2305L107 84.2305C110.536 85.8124 111.849 86.5955 112.5 87.7305C113.71 89.8413 109.333 91.3972 108 91.7305C94.8333 91.8972 68.1 92.2305 66.5 92.2305C64.5 92.2305 31 94.7305 29 94.7305C27 94.7305 20 87.7305 19.5 86.7305Z" fill="#DCC6BC" stroke="#271517" stroke-width="3"/>
<path d="M102 86.7305L29 87.6055L28 93.7305L102 90.668V86.7305Z" fill="#A5633F"/>
<path d="M76 87.7305L73 84.7305V77.7305L99 78.7305V83.2305L92.5 87.7305L86.5 83.2305L87.5 90.7305H85.5H84L85.5 83.2305L76 87.7305Z" fill="#CFC2B3" stroke="#584043" stroke-width="3"/>
<path d="M106 92.2305C104.4 92.2305 103.333 90.8972 103 90.2305V81.2305C106 82.8972 112 86.6305 112 88.2305C112 90.2305 108 92.2305 106 92.2305Z" fill="#D6F147"/>
<path d="M103 79.7305V81.2305M103 81.2305V90.2305C103.333 90.8972 104.4 92.2305 106 92.2305C108 92.2305 112 90.2305 112 88.2305C112 86.6305 106 82.8972 103 81.2305Z" stroke="#271517" stroke-width="3"/>
<path d="M29.3677 83.9995C33.9689 87.1411 29.9059 91.1479 27.2992 92.7586L21.1492 86.1687C21.9716 84.1366 24.7666 80.8579 29.3677 83.9995Z" fill="#D9C7BE" stroke="#271517" stroke-width="3"/>
<path d="M17.7089 80.2201C16.1089 79.0201 18.3756 73.0535 19.7089 70.2201C19.7089 68.2201 18.9089 62.2201 15.7089 54.2201C11.7089 44.2201 18.2089 40.7201 18.7089 39.2201C19.2089 37.7201 15.7089 24.2201 14.2089 20.2201C12.7089 16.2201 19.7089 14.2201 21.7089 13.7201C23.7089 13.2201 28.7089 14.7201 31.2089 16.2201C33.2089 17.4201 43.3756 14.3868 48.2089 12.7201C52.2089 11.5535 62.1089 9.92012 69.7089 12.7201C77.3089 15.5201 94.2089 12.8868 101.709 11.2201C104.376 10.3868 110.109 10.0201 111.709 15.2201C113.709 21.7201 108.209 26.2201 108.209 28.2201C108.209 30.2201 108.209 34.2201 111.709 37.7201C114.509 40.5201 112.209 46.8868 110.709 49.7201L127.209 43.2201C131.542 42.2201 138.609 41.9201 132.209 48.7201C125.809 55.5201 117.542 56.8868 114.209 56.7201L125.209 62.7201C125.876 64.0535 126.309 66.6201 122.709 66.2201C119.109 65.8201 107.542 61.7201 102.209 59.7201L102.709 68.7201C102.709 69.0535 103.009 69.8201 104.209 70.2201C105.409 70.6201 111.709 70.7201 114.709 70.7201V75.2201C112.709 81.2201 103.209 80.7201 103.209 80.7201C101.209 79.7201 91.2089 79.7201 87.2089 79.7201C83.7089 79.7201 75.7089 79.3868 70.2089 80.2201C67.3756 81.7201 59.6089 84.3201 51.2089 82.7201C40.7089 80.7201 35.2089 81.2201 32.2089 81.2201C29.2089 81.2201 28.2089 82.7201 23.7089 82.7201C19.2089 82.7201 19.7089 81.7201 17.7089 80.2201Z" fill="#D6F147" stroke="#416B21" stroke-width="3"/>
<path d="M91.446 63.7201C85.892 72.7097 36.5651 86.6879 34.8148 43.8313C34.5451 38.4593 38.8265 31.2603 44.8589 24.7305C46.1686 23.4383 47.5547 22.3094 49 21.3389C53.4413 18.3564 58.4415 16.869 63.5 16.7308C69.8115 16.5583 76.2139 18.4861 81.7349 22.2305C88.5414 26.8468 95.6295 36.932 96.3148 43.8313C97 50.7305 97 54.7305 91.446 63.7201Z" fill="#E6ECD7"/>
<path d="M63.5 16.7308C58.4415 16.869 53.4413 18.3564 49 21.3389C47.5547 22.3094 46.1686 23.4383 44.8589 24.7305M63.5 16.7308C63.5 9.23055 65 3.73055 64 9.23055M63.5 16.7308C69.8115 16.5583 76.2139 18.4861 81.7349 22.2305M44.8589 24.7305C38.8265 31.2603 34.5451 38.4593 34.8148 43.8313C36.5651 86.6879 85.892 72.7097 91.446 63.7201C97 54.7305 97 50.7305 96.3148 43.8313C95.6295 36.932 88.5414 26.8468 81.7349 22.2305M44.8589 24.7305C43.0726 17.7305 39.9 5.33054 41.5 11.7305M81.7349 22.2305C83.9116 18.2305 87.612 11.4305 85 16.2305" stroke="#271419" stroke-width="4"/>
<ellipse cx="31.2103" cy="70.3504" rx="5.24648" ry="3.70195" transform="rotate(-49.9279 31.2103 70.3504)" fill="#75A033"/>
<ellipse cx="27.6145" cy="61.51" rx="2.68988" ry="2.5" transform="rotate(-32.7326 27.6145 61.51)" fill="#75A033"/>
<ellipse cx="27" cy="25.4525" rx="4" ry="4.5" fill="#75A033"/>
<ellipse cx="100" cy="21.4525" rx="4" ry="4.5" transform="rotate(59.7619 100 21.4525)" fill="#75A033"/>
<path d="M121.324 70.3527C123.758 69.6685 123.015 67.2166 122.338 66.0762C120.141 65.4784 116.968 64.5998 113.934 63.7305C109.735 62.5271 105.802 61.3417 105.095 60.9444C103.574 60.0891 104.081 61.7997 104.081 66.0762C104.081 69.4974 105.434 70.3527 106.11 70.3527C110.167 70.6378 118.89 71.037 121.324 70.3527Z" fill="#FEFFFE"/>
<path d="M113.934 63.7305C109.735 62.5271 105.802 61.3417 105.095 60.9444C103.574 60.0891 104.081 61.7997 104.081 66.0762C104.081 69.4974 105.434 70.3527 106.11 70.3527C110.167 70.6378 118.89 71.037 121.324 70.3527C123.758 69.6685 123.015 67.2166 122.338 66.0762C120.141 65.4784 116.968 64.5998 113.934 63.7305ZM113.934 63.7305V70.3527" stroke="#416B21" stroke-width="3"/>
<path d="M72 105.231L72.5 93.7305H78V100.731C79.8333 100.064 83.7 98.8305 84.5 99.2305C85.3 99.6305 85.5 102.731 85.5 104.231H77.5C77.6667 103.897 77.5 102.931 75.5 101.731C73.5 100.531 72.1667 103.897 72 105.231Z" fill="#CDBDB5"/>
<path d="M77.5 104.231C77.6667 103.897 77.5 102.931 75.5 101.731C73.5 100.531 72.1667 103.897 72 105.231L72.5 93.7305H78V100.731C79.8333 100.064 83.7 98.8305 84.5 99.2305M77.5 104.231H85.5M77.5 104.231L82.5 101.731M85.5 104.231C85.5 102.731 85.3 99.6305 84.5 99.2305M85.5 104.231L82.5 101.731M84.5 99.2305L82.5 101.731" stroke="#271517" stroke-width="3"/>
<path d="M45 107.231L45.5 95.7305H51V102.731C52.8333 102.064 56.7 100.831 57.5 101.231C58.3 101.631 58.5 104.731 58.5 106.231H50.5C50.6667 105.897 50.5 104.931 48.5 103.731C46.5 102.531 45.1667 105.897 45 107.231Z" fill="#CDBDB5"/>
<path d="M50.5 106.231C50.6667 105.897 50.5 104.931 48.5 103.731C46.5 102.531 45.1667 105.897 45 107.231L45.5 95.7305H51V102.731C52.8333 102.064 56.7 100.831 57.5 101.231M50.5 106.231H58.5M50.5 106.231L55.5 103.731M58.5 106.231C58.5 104.731 58.3 101.631 57.5 101.231M58.5 106.231L55.5 103.731M57.5 101.231L55.5 103.731" stroke="#271517" stroke-width="3"/>
<path d="M22.5 92.7306L23.5 91.7306L22.5 89.7305C22.1667 90.0639 21.4 90.7305 21 90.7305C20.6 90.7305 19.5 90.3972 19 90.2306C15.4 89.0306 13.5 92.0639 13 93.7306C13 95.0639 13.6 98.1306 16 99.7306C19 101.731 23 98.2306 23.5 97.7306C23.9 97.3306 23 94.2306 22.5 92.7306Z" fill="#D7F048" stroke="#271517" stroke-width="3"/>
<path d="M92.0455 68.4323C100.172 65.1281 100.79 71.3576 100.084 74.8853" stroke="url(#paint0_linear_10_2)" stroke-width="0.5"/>
<path d="M94 74.7305H94.104" stroke="#F86E7E" stroke-linecap="round"/>
<path d="M97 72.7305H97.104" stroke="#F86E7E" stroke-linecap="round"/>
<path d="M92 71.7787C92.0198 71.6404 92.1648 71.8395 92.2081 71.8828" stroke="#FF4459" stroke-linecap="round"/>
<path d="M96 69.7305H96.104" stroke="#FF6173" stroke-linecap="round"/>
<g filter="url(#filter0_f_10_2)">
<circle cx="95.5" cy="72.2305" r="3.5" fill="#FF0000"/>
</g>
<defs>
<filter id="filter0_f_10_2" x="84" y="60.7305" width="23" height="23" filterUnits="userSpaceOnUse" color-interpolation-filters="sRGB">
<feFlood flood-opacity="0" result="BackgroundImageFix"/>
<feBlend mode="normal" in="SourceGraphic" in2="BackgroundImageFix" result="shape"/>
<feGaussianBlur stdDeviation="4" result="effect1_foregroundBlur_10_2"/>
</filter>
<linearGradient id="paint0_linear_10_2" x1="97.8312" y1="67.8216" x2="96" y2="70.7305" gradientUnits="userSpaceOnUse">
<stop stop-color="#FF6B00"/>
<stop offset="1" stop-color="#D6F147"/>
</linearGradient>
</defs>
</svg>
